<svg xmlns="http://www.w3.org/2000/svg" xmlns:xlink="http://www.w3.org/1999/xlink" width="100" zoomAndPan="magnify" viewBox="0 0 75 74.999997" height="100" preserveAspectRatio="xMidYMid meet" version="1.0"><path fill="#ffffff" d="M 75 60.746094 L 75 15.480469 C 74.09375 15.480469 73.210938 15.496094 72.339844 15.515625 L 72.339844 12.382812 L 71.464844 12.382812 C 70.421875 12.382812 69.410156 12.40625 68.414062 12.4375 L 68.414062 9.101562 L 67.539062 9.101562 C 47.84375 9.101562 37.636719 17.035156 37.53125 17.117188 L 37.5 17.140625 L 37.464844 17.117188 C 37.367188 17.035156 27.15625 9.101562 7.460938 9.101562 L 6.585938 9.101562 L 6.585938 12.441406 C 5.589844 12.40625 4.578125 12.382812 3.535156 12.382812 L 2.660156 12.382812 L 2.660156 15.515625 C 1.789062 15.496094 0.902344 15.480469 0 15.480469 L 0 60.746094 C 24.75 60.746094 37.5 65.875 37.5 65.875 C 37.5 65.875 50.25 60.746094 75 60.746094 Z M 4.40625 14.042969 C 5.148438 14.050781 5.871094 14.066406 6.585938 14.089844 L 6.585938 54.480469 C 6.585938 54.597656 6.605469 54.699219 6.636719 54.761719 C 6.789062 55.082031 6.878906 55.078125 6.917969 55.132812 C 7.058594 55.226562 7.039062 55.203125 7.058594 55.214844 C 7.066406 55.222656 7.070312 55.222656 7.070312 55.222656 L 8.335938 55.820312 L 8.335938 55.3125 C 17.496094 55.425781 24.445312 57.296875 29.136719 59.15625 C 30.007812 59.503906 30.800781 59.847656 31.515625 60.179688 C 26.148438 58.75 17.082031 57.015625 4.40625 56.9375 Z M 29.136719 14.605469 C 31.554688 15.5625 33.375 16.519531 34.578125 17.234375 C 35.183594 17.589844 35.632812 17.882812 35.929688 18.085938 C 35.96875 18.113281 36.003906 18.140625 36.039062 18.164062 L 36.039062 60.703125 C 32.660156 58.613281 23.328125 53.839844 8.335938 53.660156 L 8.335938 10.761719 C 17.496094 10.875 24.445312 12.742188 29.136719 14.605469 Z M 66.664062 10.761719 L 66.664062 53.660156 C 51.671875 53.839844 42.339844 58.613281 38.964844 60.703125 L 38.964844 18.164062 C 40.761719 16.90625 50.113281 10.964844 66.664062 10.761719 Z M 70.59375 56.9375 C 57.914062 57.015625 48.84375 58.75 43.480469 60.183594 C 48.136719 58.007812 56.121094 55.339844 67.332031 55.308594 L 68.414062 55.820312 L 68.414062 14.09375 C 69.128906 14.066406 69.851562 14.050781 70.59375 14.042969 Z M 70.59375 56.9375 " fill-opacity="1" fill-rule="nonzero"/></svg>