<svg xmlns="http://www.w3.org/2000/svg" xmlns:xlink="http://www.w3.org/1999/xlink" width="100" zoomAndPan="magnify" viewBox="0 0 75 74.999997" height="100" preserveAspectRatio="xMidYMid meet" version="1.0"><path fill="#ffffff" d="M 37.5 75 C 27.484375 75 18.066406 71.097656 10.984375 64.015625 C 3.902344 56.933594 0 47.515625 0 37.5 C 0 27.484375 3.902344 18.066406 10.984375 10.984375 C 18.066406 3.902344 27.484375 0 37.5 0 C 47.515625 0 56.933594 3.902344 64.015625 10.984375 C 71.097656 18.066406 75 27.484375 75 37.5 C 75 47.515625 71.097656 56.933594 64.015625 64.015625 C 56.933594 71.101562 47.515625 75 37.5 75 Z M 37.5 5.722656 C 19.976562 5.722656 5.722656 19.980469 5.722656 37.5 C 5.722656 55.023438 19.980469 69.277344 37.5 69.277344 C 55.023438 69.277344 69.277344 55.019531 69.277344 37.5 C 69.277344 19.976562 55.023438 5.722656 37.5 5.722656 Z M 37.5 5.722656 " fill-opacity="1" fill-rule="nonzero"/><path fill="#ffffff" d="M 49.945312 51.980469 C 49.390625 51.980469 48.828125 51.816406 48.332031 51.476562 L 34.390625 41.917969 C 33.609375 41.382812 33.148438 40.5 33.148438 39.554688 L 33.183594 16.160156 C 33.1875 14.582031 34.46875 13.304688 36.042969 13.304688 C 36.046875 13.304688 36.046875 13.304688 36.050781 13.304688 C 37.628906 13.304688 38.90625 14.589844 38.90625 16.167969 L 38.871094 38.050781 L 51.566406 46.757812 C 52.871094 47.652344 53.203125 49.433594 52.308594 50.738281 C 51.753906 51.542969 50.859375 51.980469 49.945312 51.980469 Z M 49.945312 51.980469 " fill-opacity="1" fill-rule="nonzero"/></svg>