<svg xmlns="http://www.w3.org/2000/svg" xmlns:xlink="http://www.w3.org/1999/xlink" width="100" zoomAndPan="magnify" viewBox="0 0 75 74.999997" height="100" preserveAspectRatio="xMidYMid meet" version="1.0"><path fill="#ffffff" d="M 16.148438 53.183594 L 8.195312 69.167969 C 8.035156 69.523438 8.035156 69.875 8.195312 70.226562 C 8.359375 70.582031 8.625 70.816406 8.996094 70.925781 C 18.066406 73.574219 27.324219 74.933594 36.773438 75 L 37.496094 75 C 47.199219 75 56.707031 73.644531 66.023438 70.925781 C 66.394531 70.816406 66.664062 70.582031 66.824219 70.226562 C 66.984375 69.875 66.984375 69.523438 66.824219 69.167969 L 58.847656 53.183594 C 56.675781 48.800781 51.085938 45.425781 44.324219 44.132812 C 46.5 43.289062 48.457031 42.089844 50.195312 40.53125 C 51.933594 38.972656 53.339844 37.15625 54.410156 35.082031 C 54.78125 35.132812 55.152344 35.160156 55.523438 35.160156 C 56.003906 35.160156 56.480469 35.113281 56.953125 35.019531 C 57.421875 34.925781 57.882812 34.785156 58.324219 34.601562 C 58.769531 34.417969 59.191406 34.195312 59.59375 33.925781 C 59.992188 33.660156 60.363281 33.355469 60.703125 33.015625 C 61.042969 32.675781 61.347656 32.308594 61.613281 31.90625 C 61.882812 31.507812 62.109375 31.085938 62.292969 30.640625 C 62.476562 30.199219 62.617188 29.742188 62.710938 29.269531 C 62.804688 28.796875 62.855469 28.320312 62.855469 27.839844 L 62.855469 24.816406 C 62.859375 24.109375 62.761719 23.417969 62.566406 22.742188 C 62.367188 22.066406 62.074219 21.429688 61.6875 20.839844 C 61.304688 20.25 60.839844 19.726562 60.300781 19.269531 C 59.761719 18.816406 59.171875 18.449219 58.523438 18.167969 C 58.339844 16.914062 58.046875 15.683594 57.644531 14.480469 C 57.242188 13.273438 56.738281 12.117188 56.125 11.003906 C 55.515625 9.890625 54.8125 8.839844 54.015625 7.855469 C 53.214844 6.867188 52.335938 5.960938 51.375 5.128906 C 50.414062 4.300781 49.386719 3.5625 48.296875 2.917969 C 47.203125 2.273438 46.0625 1.730469 44.871094 1.289062 C 43.679688 0.847656 42.460938 0.515625 41.210938 0.292969 C 39.960938 0.0703125 38.703125 -0.0390625 37.433594 -0.0351562 C 36.164062 -0.03125 34.90625 0.0859375 33.65625 0.3125 C 32.410156 0.542969 31.191406 0.878906 30.003906 1.324219 C 28.8125 1.773438 27.675781 2.320312 26.585938 2.972656 C 25.496094 3.621094 24.472656 4.363281 23.515625 5.199219 C 22.558594 6.03125 21.683594 6.945312 20.890625 7.9375 C 20.097656 8.925781 19.398438 9.980469 18.792969 11.097656 C 18.191406 12.210938 17.6875 13.371094 17.292969 14.578125 C 16.894531 15.785156 16.609375 17.015625 16.433594 18.273438 C 15.824219 18.574219 15.265625 18.953125 14.761719 19.410156 C 14.261719 19.867188 13.828125 20.386719 13.46875 20.964844 C 13.113281 21.542969 12.839844 22.160156 12.652344 22.8125 C 12.464844 23.46875 12.371094 24.132812 12.371094 24.816406 L 12.371094 27.828125 C 12.371094 28.546875 12.472656 29.246094 12.679688 29.9375 C 12.886719 30.625 13.183594 31.265625 13.578125 31.867188 C 13.972656 32.464844 14.445312 32.996094 14.996094 33.457031 C 15.542969 33.921875 16.148438 34.292969 16.808594 34.578125 L 16.808594 37.886719 C 16.808594 38.058594 16.839844 38.222656 16.90625 38.382812 C 16.972656 38.542969 17.066406 38.679688 17.1875 38.800781 C 17.308594 38.921875 17.449219 39.015625 17.605469 39.082031 C 17.765625 39.148438 17.929688 39.179688 18.101562 39.179688 L 23.441406 39.179688 C 25.464844 41.40625 27.875 43.0625 30.683594 44.148438 C 23.894531 45.441406 18.320312 48.800781 16.148438 53.183594 Z M 60.359375 24.816406 L 60.359375 27.828125 C 60.359375 28.144531 60.328125 28.457031 60.265625 28.769531 C 60.203125 29.078125 60.109375 29.382812 59.988281 29.675781 C 59.867188 29.96875 59.714844 30.246094 59.539062 30.507812 C 59.363281 30.773438 59.164062 31.015625 58.9375 31.238281 C 58.714844 31.460938 58.46875 31.664062 58.207031 31.839844 C 57.941406 32.015625 57.664062 32.164062 57.371094 32.285156 C 57.078125 32.40625 56.777344 32.496094 56.464844 32.558594 C 56.152344 32.621094 55.839844 32.652344 55.523438 32.652344 C 56.257812 30.605469 56.621094 28.5 56.621094 26.328125 C 56.621094 24.15625 56.257812 22.046875 55.523438 20.003906 C 55.839844 20.003906 56.152344 20.03125 56.464844 20.09375 C 56.777344 20.152344 57.078125 20.242188 57.371094 20.363281 C 57.664062 20.484375 57.945312 20.628906 58.207031 20.804688 C 58.472656 20.980469 58.714844 21.179688 58.941406 21.402344 C 59.167969 21.628906 59.367188 21.871094 59.542969 22.132812 C 59.71875 22.398438 59.867188 22.675781 59.992188 22.96875 C 60.113281 23.261719 60.203125 23.5625 60.265625 23.871094 C 60.328125 24.183594 60.359375 24.496094 60.359375 24.816406 Z M 37.496094 2.496094 C 38.730469 2.492188 39.953125 2.609375 41.164062 2.847656 C 42.375 3.089844 43.550781 3.445312 44.691406 3.917969 C 45.828125 4.390625 46.914062 4.972656 47.9375 5.660156 C 48.960938 6.347656 49.910156 7.128906 50.777344 8.003906 C 52.089844 9.304688 53.183594 10.765625 54.066406 12.390625 C 54.945312 14.011719 55.574219 15.726562 55.949219 17.535156 L 55.5625 17.535156 C 55.191406 17.535156 54.820312 17.558594 54.449219 17.613281 C 53.648438 16.058594 52.652344 14.644531 51.460938 13.367188 C 50.269531 12.089844 48.929688 10.996094 47.4375 10.085938 C 45.945312 9.179688 44.359375 8.488281 42.679688 8.015625 C 40.996094 7.542969 39.28125 7.308594 37.535156 7.308594 C 35.789062 7.308594 34.074219 7.542969 32.394531 8.015625 C 30.710938 8.488281 29.125 9.179688 27.632812 10.085938 C 26.140625 10.996094 24.800781 12.089844 23.609375 13.367188 C 22.417969 14.644531 21.421875 16.058594 20.621094 17.613281 C 20.320312 17.59375 20.019531 17.59375 19.71875 17.613281 L 19.109375 17.613281 C 19.316406 16.554688 19.613281 15.523438 20 14.519531 C 20.386719 13.511719 20.855469 12.546875 21.410156 11.621094 C 21.960938 10.695312 22.589844 9.828125 23.292969 9.011719 C 23.996094 8.191406 24.761719 7.441406 25.59375 6.757812 C 26.425781 6.074219 27.3125 5.464844 28.25 4.933594 C 29.1875 4.402344 30.160156 3.957031 31.175781 3.59375 C 32.191406 3.230469 33.226562 2.957031 34.289062 2.773438 C 35.351562 2.585938 36.421875 2.496094 37.496094 2.496094 Z M 14.867188 27.828125 L 14.867188 24.816406 C 14.867188 24.328125 14.941406 23.851562 15.089844 23.386719 C 15.234375 22.921875 15.445312 22.488281 15.722656 22.089844 C 16 21.6875 16.328125 21.335938 16.714844 21.039062 C 17.097656 20.738281 17.515625 20.5 17.972656 20.328125 L 18.101562 20.328125 C 18.582031 20.140625 19.082031 20.042969 19.601562 20.03125 C 18.867188 22.070312 18.5 24.171875 18.5 26.339844 C 18.5 28.507812 18.867188 30.609375 19.601562 32.652344 C 19.289062 32.644531 18.976562 32.609375 18.671875 32.546875 C 18.367188 32.480469 18.070312 32.386719 17.78125 32.261719 C 17.492188 32.136719 17.21875 31.988281 16.960938 31.8125 C 16.703125 31.632812 16.464844 31.433594 16.246094 31.210938 C 16.027344 30.988281 15.828125 30.742188 15.65625 30.480469 C 15.484375 30.21875 15.339844 29.945312 15.222656 29.65625 C 15.105469 29.363281 15.015625 29.066406 14.957031 28.757812 C 14.898438 28.449219 14.867188 28.140625 14.867188 27.828125 Z M 19.394531 36.632812 L 19.394531 35.132812 L 19.742188 35.132812 C 20.050781 35.132812 20.355469 35.109375 20.660156 35.070312 C 20.929688 35.601562 21.226562 36.121094 21.554688 36.621094 Z M 30.554688 39.128906 C 30.777344 39.597656 31.109375 39.972656 31.546875 40.25 C 31.984375 40.527344 32.464844 40.667969 32.984375 40.667969 L 35.570312 40.667969 C 35.929688 40.667969 36.273438 40.597656 36.605469 40.457031 C 36.9375 40.320312 37.230469 40.121094 37.480469 39.867188 C 37.734375 39.613281 37.929688 39.320312 38.066406 38.988281 C 38.203125 38.65625 38.273438 38.3125 38.273438 37.953125 L 38.273438 37.242188 C 38.273438 36.882812 38.203125 36.535156 38.066406 36.207031 C 37.929688 35.875 37.734375 35.582031 37.480469 35.324219 C 37.230469 35.070312 36.9375 34.875 36.605469 34.734375 C 36.273438 34.597656 35.929688 34.527344 35.570312 34.527344 L 32.984375 34.527344 C 32.683594 34.53125 32.390625 34.585938 32.105469 34.691406 C 31.820312 34.792969 31.5625 34.941406 31.328125 35.132812 C 31.09375 35.324219 30.894531 35.546875 30.738281 35.804688 C 30.578125 36.0625 30.464844 36.339844 30.398438 36.632812 L 24.566406 36.632812 C 24.132812 36.085938 23.734375 35.515625 23.371094 34.917969 C 23.011719 34.324219 22.6875 33.707031 22.40625 33.066406 C 22.121094 32.429688 21.878906 31.777344 21.679688 31.109375 C 21.476562 30.441406 21.320312 29.765625 21.207031 29.074219 C 21.089844 28.386719 21.019531 27.695312 20.992188 26.996094 C 20.964844 26.300781 20.980469 25.605469 21.042969 24.910156 C 21.101562 24.214844 21.207031 23.527344 21.355469 22.84375 C 21.503906 22.164062 21.695312 21.492188 21.925781 20.835938 C 22.160156 20.179688 22.433594 19.539062 22.746094 18.914062 C 23.0625 18.292969 23.414062 17.691406 23.804688 17.113281 C 24.195312 16.535156 24.621094 15.984375 25.078125 15.457031 C 25.539062 14.933594 26.03125 14.441406 26.550781 13.976562 C 27.074219 13.515625 27.625 13.089844 28.199219 12.695312 C 28.777344 12.300781 29.375 11.949219 30 11.628906 C 30.621094 11.3125 31.257812 11.039062 31.914062 10.800781 C 32.570312 10.566406 33.242188 10.371094 33.921875 10.21875 C 34.601562 10.070312 35.289062 9.960938 35.984375 9.898438 C 36.679688 9.832031 37.375 9.8125 38.074219 9.835938 C 38.769531 9.859375 39.464844 9.929688 40.152344 10.039062 C 40.839844 10.152344 41.519531 10.308594 42.1875 10.503906 C 42.859375 10.703125 43.511719 10.941406 44.148438 11.222656 C 44.789062 11.503906 45.40625 11.820312 46.003906 12.179688 C 46.605469 12.539062 47.175781 12.933594 47.726562 13.367188 C 48.273438 13.796875 48.792969 14.261719 49.28125 14.757812 C 49.769531 15.257812 50.226562 15.78125 50.648438 16.335938 C 51.074219 16.890625 51.460938 17.472656 51.808594 18.074219 C 52.15625 18.679688 52.46875 19.304688 52.738281 19.945312 C 53.007812 20.589844 53.238281 21.246094 53.425781 21.917969 C 53.613281 22.589844 53.757812 23.273438 53.855469 23.960938 C 53.957031 24.652344 54.015625 25.347656 54.027344 26.042969 C 54.042969 26.742188 54.011719 27.4375 53.933594 28.128906 C 53.859375 28.824219 53.742188 29.511719 53.578125 30.1875 C 53.417969 30.867188 53.214844 31.53125 52.96875 32.1875 C 52.722656 32.839844 52.433594 33.472656 52.109375 34.089844 C 51.78125 34.707031 51.417969 35.300781 51.015625 35.871094 C 50.613281 36.441406 50.179688 36.984375 49.707031 37.5 C 49.238281 38.011719 48.734375 38.496094 48.203125 38.949219 C 47.671875 39.398438 47.113281 39.816406 46.53125 40.195312 C 45.945312 40.578125 45.339844 40.921875 44.710938 41.226562 C 44.082031 41.527344 43.4375 41.792969 42.777344 42.015625 C 42.117188 42.238281 41.445312 42.417969 40.761719 42.554688 C 40.078125 42.691406 39.386719 42.785156 38.691406 42.835938 C 37.996094 42.886719 37.296875 42.890625 36.601562 42.855469 C 35.90625 42.816406 35.214844 42.734375 34.527344 42.609375 C 33.839844 42.484375 33.164062 42.3125 32.5 42.101562 C 31.835938 41.890625 31.1875 41.640625 30.554688 41.347656 C 29.921875 41.050781 29.308594 40.71875 28.71875 40.347656 C 28.128906 39.976562 27.5625 39.570312 27.023438 39.128906 Z M 32.90625 37.058594 L 35.570312 37.058594 C 35.707031 37.058594 35.777344 37.128906 35.777344 37.265625 L 35.777344 37.976562 C 35.777344 38.117188 35.707031 38.183594 35.570312 38.183594 L 33.101562 38.183594 C 33.113281 38.09375 33.113281 38.003906 33.101562 37.914062 C 33.117188 37.597656 33.03125 37.3125 32.84375 37.058594 Z M 37.289062 45.945312 L 37.832031 45.945312 C 46.34375 45.945312 54.269531 49.460938 56.675781 54.296875 L 63.953125 68.933594 C 55.066406 71.378906 46.015625 72.566406 36.800781 72.492188 C 28.082031 72.4375 19.523438 71.25 11.117188 68.933594 L 18.386719 54.308594 C 20.789062 49.460938 28.71875 45.945312 37.226562 45.945312 Z M 37.289062 45.945312 " fill-opacity="1" fill-rule="nonzero"/></svg>