<svg xmlns="http://www.w3.org/2000/svg" xmlns:xlink="http://www.w3.org/1999/xlink" width="100" zoomAndPan="magnify" viewBox="0 0 75 74.999997" height="100" preserveAspectRatio="xMidYMid meet" version="1.0"><defs><clipPath id="b6ba507700"><path d="M 0 14.15625 L 75 14.15625 L 75 47 L 0 47 Z M 0 14.15625 " clip-rule="nonzero"/></clipPath><clipPath id="062f0a795a"><path d="M 12 35 L 63 35 L 63 60.65625 L 12 60.65625 Z M 12 35 " clip-rule="nonzero"/></clipPath></defs><g clip-path="url(#b6ba507700)"><path fill="#ffffff" d="M 37.199219 46.183594 C 36.78125 46.179688 36.375 46.101562 35.984375 45.949219 L 2.164062 32.664062 C 1.847656 32.539062 1.558594 32.371094 1.296875 32.160156 C 1.03125 31.945312 0.804688 31.699219 0.617188 31.417969 C 0.425781 31.136719 0.285156 30.832031 0.1875 30.507812 C 0.09375 30.183594 0.046875 29.851562 0.0546875 29.511719 C 0.0585938 29.171875 0.113281 28.84375 0.222656 28.519531 C 0.328125 28.199219 0.480469 27.898438 0.675781 27.625 C 0.875 27.347656 1.109375 27.109375 1.378906 26.90625 C 1.648438 26.703125 1.945312 26.542969 2.265625 26.429688 L 36.085938 14.410156 C 36.824219 14.148438 37.5625 14.148438 38.300781 14.410156 L 72.800781 26.421875 C 73.125 26.53125 73.421875 26.691406 73.695312 26.894531 C 73.96875 27.097656 74.207031 27.339844 74.40625 27.613281 C 74.605469 27.890625 74.757812 28.191406 74.867188 28.515625 C 74.972656 28.839844 75.03125 29.171875 75.035156 29.511719 C 75.039062 29.851562 74.996094 30.1875 74.898438 30.511719 C 74.800781 30.839844 74.65625 31.144531 74.464844 31.425781 C 74.273438 31.710938 74.046875 31.957031 73.78125 32.167969 C 73.511719 32.382812 73.21875 32.550781 72.902344 32.671875 L 38.375 45.957031 C 37.996094 46.105469 37.605469 46.179688 37.199219 46.183594 Z M 3.414062 29.566406 L 37.25 42.886719 L 71.671875 29.566406 L 37.199219 17.523438 Z M 3.414062 29.566406 " fill-opacity="1" fill-rule="nonzero"/></g><g clip-path="url(#062f0a795a)"><path fill="#ffffff" d="M 36.808594 60.808594 C 19.046875 60.808594 13.226562 54.980469 12.570312 51.46875 L 12.570312 35.835938 L 15.898438 35.835938 L 15.898438 50.984375 C 16.390625 52.808594 21.058594 57.476562 36.808594 57.476562 C 52.558594 57.476562 58.183594 52.78125 59.183594 50.820312 L 59.183594 35.835938 L 62.515625 35.835938 L 62.515625 51.484375 L 62.414062 51.757812 C 61.183594 55.113281 54.40625 60.808594 36.808594 60.808594 Z M 36.808594 60.808594 " fill-opacity="1" fill-rule="nonzero"/></g></svg>