<svg xmlns="http://www.w3.org/2000/svg" xmlns:xlink="http://www.w3.org/1999/xlink" width="100" zoomAndPan="magnify" viewBox="0 0 75 74.999997" height="100" preserveAspectRatio="xMidYMid meet" version="1.0"><path fill="#ffffff" d="M 37.5 75 C 16.824219 75 0 58.175781 0 37.5 C 0 16.824219 16.824219 0 37.5 0 C 58.175781 0 75 16.824219 75 37.5 C 75 58.175781 58.175781 75 37.5 75 Z M 37.5 5.4375 C 19.816406 5.4375 5.433594 19.816406 5.433594 37.5 C 5.433594 55.179688 19.816406 69.5625 37.5 69.5625 C 55.179688 69.5625 69.566406 55.179688 69.566406 37.5 C 69.566406 19.816406 55.179688 5.4375 37.5 5.4375 Z M 37.5 5.4375 " fill-opacity="1" fill-rule="nonzero"/><path fill="#ffffff" d="M 38.273438 56.960938 C 37.984375 56.851562 37.671875 56.671875 37.671875 55.917969 C 37.671875 55.605469 37.722656 55.246094 37.832031 54.804688 L 42.570312 31.84375 C 42.675781 31.304688 42.730469 30.738281 42.730469 30.175781 C 42.730469 28.691406 42.273438 27.5625 41.371094 26.816406 C 39.347656 25.152344 35.808594 25.480469 29.921875 27.46875 L 29.347656 27.660156 L 29.113281 30.625 L 30.101562 30.625 C 33.101562 30.625 33.824219 30.859375 33.976562 30.929688 C 34.175781 31.027344 34.285156 31.140625 34.285156 31.480469 C 34.285156 31.667969 34.261719 31.878906 34.214844 32.113281 C 34.15625 32.421875 34.085938 32.785156 34.015625 33.171875 L 29.675781 54.261719 C 29.476562 55.324219 29.371094 56.234375 29.371094 56.960938 C 29.371094 58.644531 29.855469 59.941406 30.800781 60.816406 C 31.730469 61.671875 33.003906 62.109375 34.582031 62.109375 C 36.429688 62.109375 38.914062 61.597656 42.167969 60.542969 L 42.746094 60.355469 L 42.980469 57.355469 L 42 57.355469 C 39.777344 57.355469 38.75 57.136719 38.273438 56.960938 Z M 38.273438 56.960938 " fill-opacity="1" fill-rule="nonzero"/><path fill="#ffffff" d="M 44.507812 14.175781 C 43.613281 13.328125 42.464844 12.890625 41.097656 12.890625 C 39.679688 12.890625 38.480469 13.355469 37.535156 14.273438 C 36.582031 15.195312 36.097656 16.433594 36.097656 17.960938 C 36.097656 19.367188 36.558594 20.535156 37.46875 21.441406 C 38.375 22.351562 39.535156 22.8125 40.914062 22.8125 C 42.320312 22.8125 43.507812 22.324219 44.457031 21.367188 C 45.402344 20.410156 45.875 19.167969 45.875 17.675781 C 45.875 16.214844 45.417969 15.039062 44.507812 14.175781 Z M 44.507812 14.175781 " fill-opacity="1" fill-rule="nonzero"/></svg>