<svg xmlns="http://www.w3.org/2000/svg" xmlns:xlink="http://www.w3.org/1999/xlink" width="100" zoomAndPan="magnify" viewBox="0 0 75 74.999997" height="100" preserveAspectRatio="xMidYMid meet" version="1.0"><defs><clipPath id="51be8b692e"><path d="M 0 1.265625 L 75 1.265625 L 75 74 L 0 74 Z M 0 1.265625 " clip-rule="nonzero"/></clipPath></defs><g clip-path="url(#51be8b692e)"><path fill="#ffffff" d="M 25.003906 1.265625 C 15.359375 1.265625 7.511719 9.113281 7.511719 18.757812 C 7.511719 24.78125 10.574219 30.105469 15.222656 33.253906 C 6.296875 37.070312 0.015625 45.941406 0.015625 56.242188 L 5.015625 56.242188 C 5.015625 45.222656 13.984375 36.25 25.003906 36.25 C 28.605469 36.25 31.980469 37.203125 34.902344 38.902344 C 35.929688 37.527344 37.074219 36.253906 38.347656 35.128906 C 37.21875 34.40625 36.003906 33.804688 34.753906 33.273438 C 39.417969 30.128906 42.496094 24.796875 42.496094 18.757812 C 42.496094 9.113281 34.652344 1.265625 25.003906 1.265625 Z M 25.003906 6.261719 C 31.894531 6.261719 37.5 11.867188 37.5 18.757812 C 37.5 25.648438 31.894531 31.253906 25.003906 31.253906 C 18.117188 31.253906 12.511719 25.648438 12.511719 18.757812 C 12.511719 11.867188 18.117188 6.261719 25.003906 6.261719 Z M 54.992188 33.75 C 43.996094 33.75 35 42.746094 35 53.742188 C 35 64.738281 43.996094 73.734375 54.992188 73.734375 C 65.988281 73.734375 74.984375 64.738281 74.984375 53.742188 C 74.984375 42.746094 65.988281 33.75 54.992188 33.75 Z M 54.992188 38.75 C 63.238281 38.75 69.984375 45.496094 69.984375 53.742188 C 69.984375 61.988281 63.238281 68.738281 54.992188 68.738281 C 46.746094 68.738281 40 61.988281 40 53.742188 C 40 45.496094 46.746094 38.75 54.992188 38.75 Z M 62.488281 46.996094 L 54.242188 55.242188 L 48.496094 49.496094 L 44.996094 52.992188 L 54.242188 62.242188 L 65.988281 50.492188 Z M 62.488281 46.996094 " fill-opacity="1" fill-rule="nonzero"/></g></svg>