<svg xmlns="http://www.w3.org/2000/svg" xmlns:xlink="http://www.w3.org/1999/xlink" width="100" zoomAndPan="magnify" viewBox="0 0 75 74.999997" height="100" preserveAspectRatio="xMidYMid meet" version="1.0"><defs><clipPath id="b84ee6299d"><path d="M 0 3.421875 L 75 3.421875 L 75 71.671875 L 0 71.671875 Z M 0 3.421875 " clip-rule="nonzero"/></clipPath></defs><g clip-path="url(#b84ee6299d)"><path fill="#ffffff" d="M 64.195312 39.246094 L 51.890625 54.894531 C 48.933594 58.648438 44.953125 58.144531 43.019531 53.777344 L 42.300781 52.152344 L 43.820312 63.75 L 49.226562 63.75 C 49.945312 63.75 50.519531 64.296875 50.519531 65.015625 L 50.519531 70.15625 C 50.519531 70.847656 49.933594 71.421875 49.238281 71.421875 L 5.773438 71.421875 C 5.070312 71.421875 4.496094 70.875 4.496094 70.15625 L 4.496094 65.015625 C 4.496094 64.324219 5.070312 63.75 5.789062 63.75 L 11.195312 63.75 L 12.710938 52.152344 L 10.140625 58.863281 C 9.636719 60.179688 8.089844 61.433594 6.71875 61.644531 L 5.894531 61.777344 C 4.507812 61.992188 2.671875 61.285156 1.792969 60.207031 L 1.273438 59.554688 C 0.394531 58.476562 0.0742188 56.53125 0.582031 55.214844 L 9.222656 32.722656 C 10.234375 30.085938 13.363281 27.953125 16.160156 27.953125 L 38.851562 27.953125 C 41.675781 27.953125 44.792969 30.113281 45.804688 32.734375 L 49.265625 41.75 L 56.113281 32.976562 C 56.992188 31.855469 58.816406 31.109375 60.226562 31.296875 L 62.316406 31.601562 L 72.519531 19.832031 C 72.984375 19.296875 73.796875 19.257812 74.316406 19.710938 C 74.847656 20.164062 74.914062 20.976562 74.449219 21.507812 L 64.179688 33.347656 L 64.808594 34.878906 C 65.339844 36.183594 65.058594 38.140625 64.195312 39.246094 Z M 38 39.21875 C 37.921875 38.648438 38.320312 38.183594 38.894531 38.183594 C 39.332031 38.183594 39.796875 38.515625 39.957031 38.902344 L 45.3125 52.84375 C 46.21875 55.226562 48.226562 55.519531 49.800781 53.523438 L 62.039062 37.863281 C 62.464844 37.304688 62.609375 36.332031 62.34375 35.679688 L 62.183594 35.292969 C 61.929688 34.640625 61.144531 34.039062 60.453125 33.945312 L 60.054688 33.878906 C 59.347656 33.789062 58.429688 34.171875 58.015625 34.707031 L 50.332031 44.535156 L 48.496094 46.890625 L 43.394531 33.585938 C 42.742188 31.894531 40.71875 30.511719 38.894531 30.511719 L 16.121094 30.511719 C 14.296875 30.511719 12.273438 31.910156 11.621094 33.613281 L 3.070312 55.894531 C 2.804688 56.558594 2.964844 57.542969 3.402344 58.089844 L 3.65625 58.410156 C 4.097656 58.957031 5.015625 59.300781 5.707031 59.195312 L 6.121094 59.128906 C 6.8125 59.023438 7.570312 58.421875 7.824219 57.757812 L 15.054688 38.914062 C 15.214844 38.515625 15.695312 38.183594 16.121094 38.183594 C 16.695312 38.183594 17.09375 38.621094 17.011719 39.21875 L 13.777344 63.75 L 41.25 63.75 Z M 47.960938 66.308594 L 7.050781 66.308594 L 7.050781 68.863281 L 47.960938 68.863281 Z M 27.507812 24.121094 C 21.859375 24.121094 17.28125 19.539062 17.28125 13.890625 C 17.28125 8.246094 21.859375 3.664062 27.507812 3.664062 C 33.152344 3.664062 37.734375 8.246094 37.734375 13.890625 C 37.734375 19.539062 33.152344 24.121094 27.507812 24.121094 Z M 27.507812 21.5625 C 31.742188 21.5625 35.175781 18.125 35.175781 13.890625 C 35.175781 9.65625 31.742188 6.222656 27.507812 6.222656 C 23.273438 6.222656 19.835938 9.65625 19.835938 13.890625 C 19.835938 18.125 23.273438 21.5625 27.507812 21.5625 Z M 27.507812 21.5625 " fill-opacity="1" fill-rule="evenodd"/></g></svg>