<svg xmlns="http://www.w3.org/2000/svg" xmlns:xlink="http://www.w3.org/1999/xlink" width="100" zoomAndPan="magnify" viewBox="0 0 75 74.999997" height="100" preserveAspectRatio="xMidYMid meet" version="1.0"><defs><clipPath id="7a50a48c32"><path d="M 7.03125 0 L 67.78125 0 L 67.78125 75 L 7.03125 75 Z M 7.03125 0 " clip-rule="nonzero"/></clipPath></defs><g clip-path="url(#7a50a48c32)"><path fill="#ffffff" d="M 12.507812 32.109375 L 12.507812 51 C 12.507812 52.375 12.183594 53.757812 11.566406 54.992188 L 7.34375 63.4375 C 7.066406 63.992188 7.09375 64.652344 7.421875 65.175781 C 7.746094 65.703125 8.320312 66.023438 8.9375 66.023438 L 26.949219 66.023438 C 27.804688 71.078125 32.203125 74.949219 37.5 74.949219 C 40.347656 74.949219 43.039062 73.839844 45.089844 71.8125 C 46.675781 70.207031 47.6875 68.195312 48.050781 66.023438 L 66.058594 66.023438 C 66.679688 66.023438 67.253906 65.703125 67.578125 65.175781 C 67.90625 64.652344 67.933594 63.992188 67.65625 63.4375 L 63.433594 54.992188 C 62.816406 53.757812 62.492188 52.375 62.492188 51 L 62.492188 32.109375 C 62.492188 25.4375 59.890625 19.164062 55.164062 14.441406 C 52.195312 11.46875 48.550781 9.3125 44.527344 8.121094 C 44.574219 7.789062 44.640625 7.460938 44.640625 7.117188 C 44.640625 3.179688 41.4375 -0.0234375 37.5 -0.0234375 C 33.5625 -0.0234375 30.359375 3.179688 30.359375 7.117188 C 30.359375 7.464844 30.425781 7.792969 30.472656 8.128906 C 19.960938 11.214844 12.507812 21.007812 12.507812 32.109375 Z M 42.5625 69.289062 C 41.203125 70.636719 39.402344 71.378906 37.5 71.378906 C 34.179688 71.378906 31.382812 69.101562 30.585938 66.023438 L 44.417969 66.023438 C 44.101562 67.246094 43.46875 68.371094 42.5625 69.289062 Z M 37.5 3.546875 C 39.46875 3.546875 41.070312 5.148438 41.070312 7.117188 C 41.070312 7.199219 41.066406 7.285156 41.0625 7.371094 C 40.847656 7.339844 40.628906 7.328125 40.417969 7.300781 C 40.21875 7.277344 40.023438 7.257812 39.828125 7.238281 C 39.050781 7.164062 38.273438 7.117188 37.5 7.117188 C 36.722656 7.117188 35.941406 7.164062 35.164062 7.238281 C 34.976562 7.257812 34.785156 7.277344 34.597656 7.300781 C 34.378906 7.324219 34.15625 7.339844 33.9375 7.371094 C 33.933594 7.285156 33.929688 7.199219 33.929688 7.117188 C 33.929688 5.148438 35.53125 3.546875 37.5 3.546875 Z M 33.023438 11.152344 C 35.253906 10.691406 37.511719 10.578125 39.742188 10.804688 C 40.488281 10.882812 41.230469 10.996094 41.972656 11.148438 C 46.027344 12.027344 49.714844 14.035156 52.640625 16.964844 C 56.691406 21.011719 58.921875 26.390625 58.921875 32.109375 L 58.921875 51 C 58.921875 52.929688 59.378906 54.863281 60.238281 56.589844 L 63.171875 62.453125 L 11.828125 62.453125 L 14.761719 56.589844 C 15.621094 54.863281 16.078125 52.929688 16.078125 51 L 16.078125 32.109375 C 16.078125 22.050781 23.210938 13.234375 33.023438 11.152344 " fill-opacity="1" fill-rule="nonzero"/></g></svg>